<svg width="512" height="512" viewBox="0 0 64 64" fill="none" xmlns="http://www.w3.org/2000/svg">
  <defs>
    <linearGradient id="novaGradient" x1="0%" y1="0%" x2="100%" y2="100%">
      <stop offset="0%" stop-color="#6366f1" />
      <stop offset="50%" stop-color="#8b5cf6" />
      <stop offset="100%" stop-color="#a855f7" />
    </linearGradient>
    <linearGradient id="novaAccent" x1="0%" y1="100%" x2="100%" y2="0%">
      <stop offset="0%" stop-color="#06b6d4" />
      <stop offset="100%" stop-color="#22d3ee" />
    </linearGradient>
    <filter id="glow" x="-50%" y="-50%" width="200%" height="200%">
      <feGaussianBlur stdDeviation="2" result="coloredBlur"/>
      <feMerge>
        <feMergeNode in="coloredBlur"/>
        <feMergeNode in="SourceGraphic"/>
      </feMerge>
    </filter>
  </defs>
  
  <circle cx="32" cy="32" r="28" fill="url(#novaGradient)" opacity="0.15" />
  <circle cx="32" cy="32" r="22" fill="url(#novaGradient)" opacity="0.3" />
  <circle cx="32" cy="32" r="16" fill="url(#novaGradient)" />
  <circle cx="32" cy="32" r="6" fill="url(#novaAccent)" filter="url(#glow)" />
  
  <circle cx="32" cy="8" r="3" fill="url(#novaAccent)" opacity="0.8" />
  <circle cx="32" cy="56" r="3" fill="url(#novaAccent)" opacity="0.8" />
  <circle cx="8" cy="32" r="3" fill="url(#novaAccent)" opacity="0.8" />
  <circle cx="56" cy="32" r="3" fill="url(#novaAccent)" opacity="0.8" />
  
  <line x1="32" y1="11" x2="32" y2="16" stroke="url(#novaAccent)" stroke-width="1.5" opacity="0.6" />
  <line x1="32" y1="48" x2="32" y2="53" stroke="url(#novaAccent)" stroke-width="1.5" opacity="0.6" />
  <line x1="11" y1="32" x2="16" y2="32" stroke="url(#novaAccent)" stroke-width="1.5" opacity="0.6" />
  <line x1="48" y1="32" x2="53" y2="32" stroke="url(#novaAccent)" stroke-width="1.5" opacity="0.6" />
  
  <circle cx="15" cy="15" r="2" fill="url(#novaGradient)" opacity="0.5" />
  <circle cx="49" cy="15" r="2" fill="url(#novaGradient)" opacity="0.5" />
  <circle cx="15" cy="49" r="2" fill="url(#novaGradient)" opacity="0.5" />
  <circle cx="49" cy="49" r="2" fill="url(#novaGradient)" opacity="0.5" />
</svg>
